<svg xmlns="http://www.w3.org/2000/svg" viewBox="0 0 500 500"><g id="freepik--Floor--inject-27"><path id="freepik--floor--inject-27" d="M82.73,244.49c-92.38,53.33-92.37,139.81,0,193.14s242.15,53.33,334.53,0,92.37-139.81,0-193.14S175.11,191.16,82.73,244.49Z" style="fill:#f5f5f5"></path><g id="freepik--Arrows--inject-27"><path d="M122.1,418.46l6.06-3.5-35.45-3.29,5.71,20.46,6.06-3.49,74.44,42.7a392.25,392.25,0,0,0,44.86,5.44Z" style="fill:#ebebeb"></path><path d="M224.78,270.12l234.6,134.57a123.12,123.12,0,0,0,11-14L242.4,260l6.06-3.5L213,253.16l5.71,20.46Z" style="fill:#ebebeb"></path><path d="M84.34,343.81l-35.44-3.3L54.6,361l6.06-3.5L269.37,477.16c10.33-.48,20.61-1.35,30.78-2.62L78.28,347.31Z" style="fill:#ebebeb"></path><path d="M449,324.29l6-3.49-35.44-3.3L425.3,338l6.05-3.5,51.8,29.71a81.32,81.32,0,0,0,3.24-18.42Z" style="fill:#ebebeb"></path><path d="M443.83,419.37l-71.39-40.95,6.05-3.5-35.44-3.29,5.71,20.46,6.05-3.49,73.53,42.17A182.58,182.58,0,0,0,443.83,419.37Z" style="fill:#ebebeb"></path></g></g><g id="freepik--Plant--inject-27"><g id="freepik--Plants--inject-27"><path d="M383.16,304.64s-3.53-29.55,8.3-57.73c6.61-15.75,17.49-22.66,24-23,7.26-.43,14.23,6.77,7.3,17-6.59,9.75-18.56,13.24-26.76,39.11-5.4,17.06-5.27,28.52-5.27,28.52Z" style="fill:#68B5C8"></path><path d="M383.16,304.64s-3.53-29.55,8.3-57.73c6.61-15.75,17.49-22.66,24-23,7.26-.43,14.23,6.77,7.3,17-6.59,9.75-18.56,13.24-26.76,39.11-5.4,17.06-5.27,28.52-5.27,28.52Z" style="fill:#fff;opacity:0.5"></path><path d="M388,297.45a.44.44,0,0,0,.43-.47c-1.53-32.23,15.25-58.27,27.65-66.48a.44.44,0,0,0,.13-.62.45.45,0,0,0-.63-.13C403,238.07,386,264.44,387.54,297A.45.45,0,0,0,388,297.45Z" style="fill:#fff"></path><path d="M390.7,308.53c1.44-7.32,5.9-14.68,15.05-22.27s21.54-14.31,20.16-21.54-11-6.27-17.86-2.71-22.7,18.28-21.12,44.58Z" style="fill:#68B5C8"></path><path d="M390.7,308.53c1.44-7.32,5.9-14.68,15.05-22.27s21.54-14.31,20.16-21.54-11-6.27-17.86-2.71-22.7,18.28-21.12,44.58Z" style="fill:#fff;opacity:0.65"></path><path d="M389.3,300.19a.46.46,0,0,0,.43-.39c2.07-15.52,21.08-34.07,29.54-36.6a.46.46,0,0,0,.3-.57.45.45,0,0,0-.56-.3c-8.87,2.66-28,21.22-30.18,37.35a.46.46,0,0,0,.39.51Z" style="fill:#fff"></path></g></g><g id="freepik--Shadows--inject-27"><path id="freepik--Shadow--inject-27" d="M371.25,326.36A102.63,102.63,0,0,0,349,337.74c-7.8,5.27-14.93,11.63-23.24,16-10.81,5.68-23.23,7.74-35.4,7.16-6.89-.33-14.38-1.84-18.81-7.27a7.49,7.49,0,0,1-1.36-4.89,9.09,9.09,0,0,1,2.92-6.76c10-9.74,24-13.75,37.42-16.89S332.06,318,345.27,311c5.66-3,11.23-6.26,16.93-9.11l.13-.07c9.15-4.55,17.64-10.49,28-5.09,5.1,2.65,7.94,7.71,5.54,13.24C391.72,319.58,380.27,323.08,371.25,326.36Z" style="fill:#e0e0e0"></path><path id="freepik--shadow--inject-27" d="M157.54,302.62,100,335.84l75.11,43.45.27-.17,2.09-1.2c.68-.41,1.33-.79,2-1.16,10-5.8,17.07-10.07,16.52-13.32-.39-2.47-4.86-3.87-8.55-4.31a14.68,14.68,0,0,1-5.71-1.68,4,4,0,0,1-2.34-3.41c0-1.53,1.12-3.12,3.29-4.38,4-2.31,10-2.55,13.51-.55a6.42,6.42,0,0,1,2.87,3.3,8.13,8.13,0,0,0,7.48,4.93c5.92.33,12.54-3.49,23.44-9.82l2.6-1.5Zm142.69,82.46c-2.36,1.35-4.64,2.63-6.88,3.85-6.41,3.56-11.54,6.42-13.79,8.81a3.36,3.36,0,0,0-1.2,2.72c.4,2.46,4.87,3.87,8.56,4.31a14.58,14.58,0,0,1,5.71,1.66,5.67,5.67,0,0,1,1.48,1.19,3.44,3.44,0,0,1,.87,2.24c0,1.52-1.14,3.12-3.32,4.36-4,2.32-10,2.55-13.49.56a6.44,6.44,0,0,1-2.88-3.29c-.78-2.14-3.2-4.72-7.49-4.95-5-.29-10.15,2.84-18,7.59L246.63,416c-1.24.74-2.52,1.51-3.89,2.31l88.48,51c1.91-.41,3.8-.82,5.69-1.25a302.33,302.33,0,0,0,66.91-23.3Z" style="fill:#e0e0e0"></path></g><g id="freepik--Gears--inject-27"><g id="freepik--gear-icons--inject-27"><path id="freepik--Gear--inject-27" d="M91.73,165.58l-4.84-.72a1.8,1.8,0,0,1-1.32-1.25,16.76,16.76,0,0,0-.9-2.52,2.35,2.35,0,0,1,.69-2.18l2.46-2.7c.63-.69.85-1.57.49-2l-3.74-4.05c-.37-.4-1.25-.31-2,.2l-3.18,2.26a2.33,2.33,0,0,1-2.14.41,18.09,18.09,0,0,0-2.64-1.21,1.81,1.81,0,0,1-1-1.54l-.22-4.44a1.31,1.31,0,0,0-1.17-1.27l-5.4-.22a1.51,1.51,0,0,0-1.36,1.33l-.71,4.08a2.26,2.26,0,0,1-1.49,1.68,19,19,0,0,0-2.12.75,2.19,2.19,0,0,1-2,0l-3.77-3.26c-.4-.36-1.29-.15-2,.46l-3.24,2.86c-.68.61-1,1.45-.65,1.9l2.9,4a2.41,2.41,0,0,1-.28,2.22c-.28.49-.52,1-.75,1.51a2.45,2.45,0,0,1-1.72,1.53l-4.72.31a1.47,1.47,0,0,0-1.25,1.38l-.3,4.86a1.33,1.33,0,0,0,1,1.46l4.85.72a1.78,1.78,0,0,1,1.32,1.24,16.76,16.76,0,0,0,.9,2.52,2.35,2.35,0,0,1-.69,2.18l-2.46,2.7c-.64.69-.85,1.57-.49,2l3.74,4.06c.37.39,1.24.3,2-.21l3.18-2.25a2.29,2.29,0,0,1,2.13-.42,17.2,17.2,0,0,0,2.65,1.21,1.81,1.81,0,0,1,1,1.55l.22,4.44a1.3,1.3,0,0,0,1.17,1.26l5.4.22a1.48,1.48,0,0,0,1.35-1.32l.72-4.09a2.27,2.27,0,0,1,1.49-1.68,19.75,19.75,0,0,0,2.12-.75,2.22,2.22,0,0,1,2,0L80.72,188c.41.35,1.29.14,2-.46l3.24-2.87c.68-.6,1-1.45.65-1.89l-2.9-4a2.43,2.43,0,0,1,.28-2.23c.27-.49.52-1,.75-1.51a2.41,2.41,0,0,1,1.72-1.52l4.72-.32a1.46,1.46,0,0,0,1.25-1.38l.3-4.86A1.33,1.33,0,0,0,91.73,165.58Zm-13.1,3.32a10.78,10.78,0,0,1-11.24,9.94,10.22,10.22,0,0,1-9.94-10.79,10.78,10.78,0,0,1,11.24-9.94A10.22,10.22,0,0,1,78.63,168.9Z" style="fill:#f0f0f0"></path><path id="freepik--gear--inject-27" d="M51.41,194.67l-2.29,2.66a1.29,1.29,0,0,1-1.26.32,12.42,12.42,0,0,0-1.88-.42,1.69,1.69,0,0,1-1-1.26l-.69-2.52c-.18-.65-.63-1.12-1-1l-3.9.71c-.38.07-.66.63-.63,1.26l.15,2.79a1.66,1.66,0,0,1-.56,1.46,11.6,11.6,0,0,0-1.75,1.13,1.29,1.29,0,0,1-1.33,0l-2.78-1.57a.93.93,0,0,0-1.22.23L29,201.62a1.08,1.08,0,0,0,.28,1.33l2.2,2a1.63,1.63,0,0,1,.45,1.55,14.8,14.8,0,0,0-.36,1.57,1.58,1.58,0,0,1-.8,1.23l-3.42,1c-.37.11-.59.72-.48,1.37l.49,3.06c.1.65.51,1.16.9,1.13l3.52-.24c.39,0,.92.45,1.23,1,.2.36.41.7.63,1a1.75,1.75,0,0,1,.27,1.64l-1.62,3a1,1,0,0,0,.35,1.28l2.83,2.05a1,1,0,0,0,1.26,0L39,223a1.29,1.29,0,0,1,1.26-.32,12.42,12.42,0,0,0,1.88.42,1.68,1.68,0,0,1,1,1.25l.69,2.53c.18.65.63,1.12,1,1l3.9-.71c.38-.07.66-.63.63-1.26l-.15-2.8a1.65,1.65,0,0,1,.57-1.45,13,13,0,0,0,1.74-1.14,1.31,1.31,0,0,1,1.33,0l2.78,1.57a.93.93,0,0,0,1.22-.23l2.2-3.19a1.09,1.09,0,0,0-.28-1.33l-2.2-2a1.62,1.62,0,0,1-.45-1.55,14.08,14.08,0,0,0,.36-1.56,1.57,1.57,0,0,1,.8-1.23l3.43-1c.36-.11.58-.73.47-1.37l-.49-3.06c-.1-.65-.5-1.16-.9-1.13l-3.51.24c-.4,0-.93-.45-1.24-1-.19-.35-.4-.69-.63-1a1.76,1.76,0,0,1-.27-1.63l1.63-3a1,1,0,0,0-.36-1.28l-2.83-2.05A1,1,0,0,0,51.41,194.67Zm-3,9.22a7.73,7.73,0,0,1,1.71,10.62,7.33,7.33,0,0,1-10.36,1.89A7.74,7.74,0,0,1,38,205.77,7.33,7.33,0,0,1,48.4,203.89Z" style="fill:#f0f0f0"></path></g><g id="freepik--gear-icons--inject-27"><path id="freepik--gear--inject-27" d="M383.26,167l.3,4.86a1.44,1.44,0,0,0,1.25,1.38l4.72.32a2.43,2.43,0,0,1,1.72,1.52,16.23,16.23,0,0,0,.74,1.51,2.47,2.47,0,0,1,.29,2.23l-2.91,4c-.32.44,0,1.29.66,1.89l3.24,2.87c.68.6,1.57.81,2,.46l3.77-3.27a2.22,2.22,0,0,1,2,0,18.84,18.84,0,0,0,2.11.75,2.27,2.27,0,0,1,1.49,1.68l.72,4.09a1.49,1.49,0,0,0,1.35,1.32l5.4-.22a1.31,1.31,0,0,0,1.18-1.26l.22-4.44a1.81,1.81,0,0,1,1-1.55,17.53,17.53,0,0,0,2.64-1.21,2.31,2.31,0,0,1,2.14.42l3.17,2.25c.72.51,1.6.6,2,.21l3.74-4.06c.37-.4.15-1.28-.48-2l-2.46-2.7a2.35,2.35,0,0,1-.69-2.18,17.94,17.94,0,0,0,.9-2.52,1.77,1.77,0,0,1,1.31-1.24l4.85-.72a1.35,1.35,0,0,0,1-1.46l-.31-4.86a1.45,1.45,0,0,0-1.25-1.38l-4.71-.31a2.44,2.44,0,0,1-1.73-1.53c-.22-.51-.47-1-.74-1.51a2.45,2.45,0,0,1-.29-2.22l2.91-4c.32-.45,0-1.29-.66-1.9l-3.23-2.86c-.69-.61-1.57-.82-2-.46l-3.77,3.26a2.19,2.19,0,0,1-2,0,18.84,18.84,0,0,0-2.11-.75,2.26,2.26,0,0,1-1.49-1.68l-.72-4.08a1.5,1.5,0,0,0-1.35-1.33l-5.4.22a1.3,1.3,0,0,0-1.17,1.27l-.22,4.44a1.82,1.82,0,0,1-1,1.54,18.58,18.58,0,0,0-2.64,1.21,2.31,2.31,0,0,1-2.13-.41l-3.18-2.26c-.72-.51-1.6-.6-2-.2l-3.74,4.05c-.37.4-.15,1.28.48,2l2.46,2.7a2.36,2.36,0,0,1,.7,2.18,16.8,16.8,0,0,0-.91,2.52,1.8,1.8,0,0,1-1.31,1.25l-4.85.72A1.32,1.32,0,0,0,383.26,167Zm24-8.92a10.79,10.79,0,0,1,11.24,9.94,10.22,10.22,0,0,1-9.95,10.79,10.78,10.78,0,0,1-11.24-9.94A10.23,10.23,0,0,1,407.28,158.11Z" style="fill:#f0f0f0"></path><path id="freepik--gear--inject-27" d="M435.52,180.68l-2.83,2a1,1,0,0,0-.36,1.28l1.62,3a1.75,1.75,0,0,1-.26,1.63c-.23.34-.44.68-.63,1-.32.58-.85,1.06-1.24,1l-3.52-.24c-.39,0-.79.48-.89,1.13l-.5,3.06c-.1.65.11,1.26.48,1.37l3.43,1a1.61,1.61,0,0,1,.8,1.23,11.1,11.1,0,0,0,.36,1.57,1.65,1.65,0,0,1-.45,1.55l-2.2,2a1.06,1.06,0,0,0-.28,1.33l2.2,3.18a.93.93,0,0,0,1.22.23l2.77-1.57a1.29,1.29,0,0,1,1.33,0,13,13,0,0,0,1.75,1.13,1.69,1.69,0,0,1,.57,1.46l-.15,2.79c0,.63.25,1.19.63,1.26l3.89.71c.38.07.84-.4,1-1.05l.69-2.52A1.7,1.7,0,0,1,446,209.1a12,12,0,0,0,1.87-.42,1.28,1.28,0,0,1,1.26.32l2.3,2.66a1,1,0,0,0,1.26,0l2.83-2.05a1,1,0,0,0,.35-1.28l-1.62-3a1.75,1.75,0,0,1,.26-1.63c.23-.34.44-.68.63-1,.32-.58.85-1.06,1.24-1l3.52.24c.39,0,.79-.48.9-1.13l.49-3.06c.1-.64-.11-1.26-.48-1.37l-3.43-1a1.56,1.56,0,0,1-.79-1.23,14.8,14.8,0,0,0-.36-1.57,1.6,1.6,0,0,1,.44-1.54l2.2-2a1.06,1.06,0,0,0,.29-1.32L457,184.48a.93.93,0,0,0-1.22-.23L453,185.82a1.31,1.31,0,0,1-1.33,0,13.11,13.11,0,0,0-1.75-1.14,1.67,1.67,0,0,1-.57-1.45l.15-2.8c0-.63-.25-1.19-.63-1.26l-3.89-.71c-.38-.07-.83.4-1,1.05l-.69,2.53a1.7,1.7,0,0,1-1.06,1.25,12.29,12.29,0,0,0-1.87.42,1.29,1.29,0,0,1-1.26-.32l-2.3-2.66A1,1,0,0,0,435.52,180.68Zm14.62,11.14a7.72,7.72,0,0,1-1.7,10.62,7.33,7.33,0,0,1-10.36-1.88,7.73,7.73,0,0,1,1.71-10.63A7.32,7.32,0,0,1,450.14,191.82Z" style="fill:#f0f0f0"></path></g></g><g id="freepik--Arrow--inject-27"><g id="freepik--arrow--inject-27"><path d="M100,331.29l75.12,43.45.27-.17,2.1-1.2,2-1.16c10-5.79,17.07-10.06,16.53-13.32-.4-2.47-4.87-3.87-8.56-4.31a14.65,14.65,0,0,1-5.71-1.67,4,4,0,0,1-2.34-3.42c0-1.52,1.12-3.12,3.29-4.38,4-2.3,10-2.55,13.5-.54a6.38,6.38,0,0,1,2.89,3.29c.77,2.14,3.2,4.72,7.48,4.94,5.91.32,12.53-3.5,23.44-9.82l2.59-1.5-75-43.41Zm200.23,49.25c-2.36,1.34-4.64,2.61-6.88,3.85-9,5-15.48,8.58-15,11.53a3.06,3.06,0,0,0,1.2,1.82c1.66,1.35,4.7,2.17,7.36,2.48a14.76,14.76,0,0,1,5.71,1.66,4.07,4.07,0,0,1,2.35,3.44,3.93,3.93,0,0,1-.87,2.3,8.19,8.19,0,0,1-2.45,2.06c-4,2.31-10,2.54-13.49.55a6.4,6.4,0,0,1-2.88-3.29c-.78-2.14-3.2-4.72-7.49-4.95-5-.28-10.15,2.84-18,7.59-2.09,1.27-4.46,2.7-7,4.23l3.89,2.23,90.28,52.08a302.33,302.33,0,0,0,66.91-23.3q2.12-1,4.2-2.13Z" style="fill:#68B5C8"></path><path d="M100,331.29l75.12,43.45.27-.17,2.1-1.2,2-1.16c10-5.79,17.07-10.06,16.53-13.32-.4-2.47-4.87-3.87-8.56-4.31a14.65,14.65,0,0,1-5.71-1.67,4,4,0,0,1-2.34-3.42c0-1.52,1.12-3.12,3.29-4.38,4-2.3,10-2.55,13.5-.54a6.38,6.38,0,0,1,2.89,3.29c.77,2.14,3.2,4.72,7.48,4.94,5.91.32,12.53-3.5,23.44-9.82l2.59-1.5-75-43.41Zm200.23,49.25c-2.36,1.34-4.64,2.61-6.88,3.85-9,5-15.48,8.58-15,11.53a3.06,3.06,0,0,0,1.2,1.82c1.66,1.35,4.7,2.17,7.36,2.48a14.76,14.76,0,0,1,5.71,1.66,4.07,4.07,0,0,1,2.35,3.44,3.93,3.93,0,0,1-.87,2.3,8.19,8.19,0,0,1-2.45,2.06c-4,2.31-10,2.54-13.49.55a6.4,6.4,0,0,1-2.88-3.29c-.78-2.14-3.2-4.72-7.49-4.95-5-.28-10.15,2.84-18,7.59-2.09,1.27-4.46,2.7-7,4.23l3.89,2.23,90.28,52.08a302.33,302.33,0,0,0,66.91-23.3q2.12-1,4.2-2.13Z" style="fill:#fff;opacity:0.2"></path><polygon points="177.31 200.69 128.77 151.15 80.23 256.74 100 245.33 100 331.3 157.54 298.07 157.54 212.1 177.31 200.69" style="fill:#68B5C8"></polygon></g></g><g id="freepik--Coin--inject-27"><g id="freepik--coin--inject-27"><g id="freepik--coin--inject-27"><path d="M156.19,47.41l2.47-5.15L147.86,36h0a16.93,16.93,0,0,0-4.07-1.7c-.5-.13-1-.24-1.51-.33a20,20,0,0,0-7.6.21,24.29,24.29,0,0,0-2.74.74A29.15,29.15,0,0,0,129.11,36a36,36,0,0,0-3.64,1.87,41.81,41.81,0,0,0-3.79,2.49c-.94.68-1.86,1.41-2.78,2.18C105.5,53.88,95,74.05,92.28,93.45c-.19,1.32-.33,2.63-.44,3.94-.16,1.88-.23,3.74-.23,5.57,0,1.51.07,3,.18,4.37.1,1.22.24,2.4.41,3.54s.39,2.22.64,3.28h0A32.23,32.23,0,0,0,96,122.47c.29.52.59,1,.91,1.5a20.16,20.16,0,0,0,4.78,5.17,19.66,19.66,0,0,0,1.76,1.15h0l10.21,5.89,2.26-4.71c.6-.13,1.2-.29,1.81-.47a33.07,33.07,0,0,0,7.11-3.15,46.34,46.34,0,0,0,4.17-2.77,53,53,0,0,0,5.12-4.37c11.19-10.77,20-27.61,23.23-44.38a74.4,74.4,0,0,0,1.06-7.44c.18-2.06.28-4.1.27-6.11a53.1,53.1,0,0,0-.71-8.67A38.28,38.28,0,0,0,156.19,47.41Z" style="fill:#68B5C8"></path><path d="M94.74,82l21.91,12.65,2.88-8.34L97.6,73.63C96.51,76.37,95.55,79.16,94.74,82Z" style="fill:#fff;opacity:0.25"></path><path d="M147.86,36h0a16.93,16.93,0,0,0-4.07-1.7c-.5-.13-1-.24-1.51-.33a20,20,0,0,0-7.6.21l-1,.24,22.54,13s0,0,0-.05l2.47-5.15Z" style="fill:#fff;opacity:0.25"></path><path d="M145.52,68l2.88-3.47L115.55,45.64q-1.56,1.55-3.06,3.26Z" style="fill:#fff;opacity:0.25"></path><path d="M105.51,58.19,134,74.62l3.13-8.19-26.5-15.3A81,81,0,0,0,105.51,58.19Z" style="fill:#fff;opacity:0.25"></path><path d="M147.86,36h0a16.93,16.93,0,0,0-4.07-1.7c-.5-.13-1-.24-1.51-.33a20,20,0,0,0-7.6.21,24.29,24.29,0,0,0-2.74.74A29.15,29.15,0,0,0,129.11,36a36,36,0,0,0-3.64,1.87,41.81,41.81,0,0,0-3.79,2.49c-.94.68-1.86,1.41-2.78,2.18-12.48,10.54-22.48,28.76-26,46.88l45.7,26.39a89.1,89.1,0,0,0,18.69-39.51,74.4,74.4,0,0,0,1.06-7.44c.18-2.06.28-4.1.27-6.11a53.1,53.1,0,0,0-.71-8.67,38.28,38.28,0,0,0-1.76-6.7l2.47-5.15Z" style="fill:#fff;opacity:0.4"></path><path d="M113.63,136.18l2.26-4.71c.6-.13,1.2-.29,1.81-.47a33.07,33.07,0,0,0,7.11-3.15,46.34,46.34,0,0,0,4.17-2.77,53,53,0,0,0,5.12-4.37,64.15,64.15,0,0,0,4.54-4.87L92.94,89.45c-.26,1.33-.48,2.67-.66,4s-.33,2.63-.44,3.94c-.16,1.88-.23,3.74-.23,5.57,0,1.51.07,3,.18,4.37.1,1.22.24,2.4.41,3.54s.39,2.22.64,3.28h0A32.23,32.23,0,0,0,96,122.47c.29.52.59,1,.91,1.5a20.16,20.16,0,0,0,4.78,5.17,19.66,19.66,0,0,0,1.76,1.15h0Z" style="opacity:0.1"></path><path d="M96,122.47c.29.52.59,1,.91,1.5a20.16,20.16,0,0,0,4.78,5.17,19.66,19.66,0,0,0,1.76,1.15h0l10.21,5.89,2.26-4.71.09,0,.16-1.93-22.7-13.11A30.63,30.63,0,0,0,96,122.47Z" style="opacity:0.1"></path><path d="M169.49,60.77A35.83,35.83,0,0,0,167,52.16a22.19,22.19,0,0,0-6.63-8.76,16.93,16.93,0,0,0-6-2.95c-.5-.13-1-.24-1.52-.33a20,20,0,0,0-7.6.21,25.48,25.48,0,0,0-2.74.74,30.17,30.17,0,0,0-2.83,1.08A35.83,35.83,0,0,0,136.07,44a39.92,39.92,0,0,0-3.8,2.49c-.93.68-1.86,1.41-2.77,2.18-13.4,11.31-24,31.48-26.63,50.88-.18,1.32-.33,2.63-.43,3.94-.16,1.87-.24,3.74-.23,5.57,0,1.51.06,3,.18,4.37.1,1.22.23,2.4.41,3.54s.39,2.22.64,3.28h0a31.51,31.51,0,0,0,3.13,8.32q.44.78.9,1.5a20.19,20.19,0,0,0,4.79,5.17,17,17,0,0,0,9.44,3.38,21.64,21.64,0,0,0,7.55-1,32.79,32.79,0,0,0,7.11-3.15,44.29,44.29,0,0,0,4.17-2.77,53,53,0,0,0,5.12-4.37c11.19-10.76,20-27.61,23.23-44.38a74.35,74.35,0,0,0,1.05-7.44c.19-2,.28-4.1.28-6.11A52.06,52.06,0,0,0,169.49,60.77Z" style="fill:#68B5C8"></path><path d="M103.54,95.54c-.26,1.34-.48,2.69-.67,4s-.33,2.63-.43,3.94c-.16,1.87-.24,3.74-.23,5.57,0,1.51.06,3,.18,4.37.1,1.22.23,2.4.41,3.54s.39,2.22.64,3.28h0a31.51,31.51,0,0,0,3.13,8.32q.44.78.9,1.5a20.19,20.19,0,0,0,4.79,5.17,17,17,0,0,0,9.44,3.38,21.64,21.64,0,0,0,7.55-1,32.79,32.79,0,0,0,7.11-3.15c1.25-.73,2.49-1.56,3.71-2.44Z" style="opacity:0.05"></path><path d="M104.07,122.62a30.33,30.33,0,0,0,2.5,6q.44.78.9,1.5a20.19,20.19,0,0,0,4.79,5.17,16.94,16.94,0,0,0,7.64,3.19Z" style="opacity:0.05"></path><path d="M108.19,79.76c-1.09,2.74-2,5.53-2.86,8.34l39.78,39.78.54-.51a65,65,0,0,0,4.88-5.27Z" style="fill:#fff;opacity:0.1"></path><path d="M121.19,57.25a78.85,78.85,0,0,0-5.08,7.06l43.78,43.79c1.42-2.67,2.72-5.44,3.89-8.26Z" style="fill:#fff;opacity:0.1"></path><path d="M126.16,51.75c-1,1-2.08,2.14-3.09,3.28l41.86,41.86q.88-2.34,1.64-4.74Z" style="fill:#fff;opacity:0.1"></path><path d="M170.11,66.41h0c0-.81-.11-1.6-.19-2.38,0-.25,0-.51-.08-.77l-.09-.79c-.08-.57-.16-1.14-.26-1.7A35.83,35.83,0,0,0,167,52.16a22.19,22.19,0,0,0-6.63-8.76,16.93,16.93,0,0,0-6-2.95c-.5-.13-1-.24-1.52-.33a20,20,0,0,0-7.6.21l-1,.24Z" style="fill:#fff;opacity:0.1"></path><path d="M161.54,74.64c0,17.89-10.43,38.56-23.63,47.34-.56.38-1.13.73-1.7,1.06-14,8.08-25.34-.49-25.34-19.15s11.34-40.33,25.34-48.41c.57-.32,1.14-.63,1.7-.9C151.11,48.12,161.54,56.74,161.54,74.64Z" style="fill:#68B5C8"></path><path d="M161.54,74.64c0,17.89-10.43,38.56-23.63,47.34-.56.38-1.13.73-1.7,1.06-14,8.08-25.34-.49-25.34-19.15s11.34-40.33,25.34-48.41c.57-.32,1.14-.63,1.7-.9C151.11,48.12,161.54,56.74,161.54,74.64Z" style="opacity:0.4"></path><path d="M160.42,75.29c0,.58,0,1.16,0,1.74-.64,16.68-10.36,35.38-22.55,43.5l-.33.22c-.43.27-.86.54-1.29.79a21,21,0,0,1-7.61,2.77c-5.68.77-10.43-1.72-13.37-6.81A26.54,26.54,0,0,1,112.09,106c-.06-.88-.09-1.78-.09-2.72s0-1.71.08-2.58a52,52,0,0,1,.61-5.5c2.14-12.89,9-26,17.76-33.92a34.76,34.76,0,0,1,3.85-3.05c.63-.43,1.27-.83,1.91-1.2s1.09-.6,1.62-.87l.45-.21a16.38,16.38,0,0,1,10-1.59c5.1,1,9,5,10.91,11.53A34.1,34.1,0,0,1,160.42,75.29Z" style="fill:#68B5C8"></path><path d="M160.42,75.29c0,.58,0,1.16,0,1.74-.64,16.68-10.36,35.38-22.55,43.5l-.33.22c-.43.27-.86.54-1.29.79a21,21,0,0,1-7.61,2.77c-5.68.77-10.43-1.72-13.37-6.81A26.54,26.54,0,0,1,112.09,106c-.06-.88-.09-1.78-.09-2.72s0-1.71.08-2.58a52,52,0,0,1,.61-5.5c2.14-12.89,9-26,17.76-33.92a34.76,34.76,0,0,1,3.85-3.05c.63-.43,1.27-.83,1.91-1.2s1.09-.6,1.62-.87l.45-.21a16.38,16.38,0,0,1,10-1.59c5.1,1,9,5,10.91,11.53A34.1,34.1,0,0,1,160.42,75.29Z" style="opacity:0.5"></path><path d="M156.36,74.7c0-.59,0-1.17,0-1.75a34.15,34.15,0,0,0-1.22-9.44A17.91,17.91,0,0,0,150,54.77a11.52,11.52,0,0,0-1.68-.45,16.38,16.38,0,0,0-10,1.59l-.45.21c-.53.27-1.08.55-1.62.87s-1.28.77-1.91,1.2a34.76,34.76,0,0,0-3.85,3.05c-8.75,7.89-15.62,21-17.76,33.92a52,52,0,0,0-.61,5.5c-.06.87-.08,1.73-.08,2.58s0,1.84.09,2.72a26.54,26.54,0,0,0,3.14,11.54,15.2,15.2,0,0,0,3.18,3.92,13.28,13.28,0,0,0,6.17.55,21,21,0,0,0,7.61-2.76c.43-.25.87-.52,1.29-.8l.33-.22C146,110.08,155.72,91.38,156.36,74.7Z" style="fill:#68B5C8"></path><path d="M156.36,74.7c0-.59,0-1.17,0-1.75a34.15,34.15,0,0,0-1.22-9.44A17.91,17.91,0,0,0,150,54.77a11.52,11.52,0,0,0-1.68-.45,16.38,16.38,0,0,0-10,1.59l-.45.21c-.53.27-1.08.55-1.62.87s-1.28.77-1.91,1.2a34.76,34.76,0,0,0-3.85,3.05c-8.75,7.89-15.62,21-17.76,33.92a52,52,0,0,0-.61,5.5c-.06.87-.08,1.73-.08,2.58s0,1.84.09,2.72a26.54,26.54,0,0,0,3.14,11.54,15.2,15.2,0,0,0,3.18,3.92,13.28,13.28,0,0,0,6.17.55,21,21,0,0,0,7.61-2.76c.43-.25.87-.52,1.29-.8l.33-.22C146,110.08,155.72,91.38,156.36,74.7Z" style="opacity:0.25"></path><path d="M152.87,40.12c-14.63-1.65-26.53,10.47-34.47,21.36-11.47,16.91-18.74,38.32-14.77,58.79v0c1.3,5.69,3.9,11.41,8.64,15-4.84-3.55-7.65-9.26-9-15v0c-3.66-16.76.94-34.37,8.61-49.36C120.07,56.11,134,38.1,152.87,40.12Z" style="fill:#f5f5f5"></path><g id="freepik--money-sign--inject-27"><polygon points="141.8 79.78 136.94 76.97 146.34 68.95 151.2 71.76 141.8 79.78" style="opacity:0.35000000000000003"></polygon><path d="M144.79,81.63c-2.49-1.76-6.8-.43-10.46.72-.88.3-1.67.56-2.39.78a4.56,4.56,0,0,0-.36,1.7c0,2.83,2.4,2,7.62.34a38.23,38.23,0,0,1,5.39-1.42c.16,1.44,1.16,2.75,5.06.69Z" style="opacity:0.35000000000000003"></path><polygon points="132.75 118.49 127.89 115.68 127.89 109.94 132.75 112.75 132.75 118.49" style="opacity:0.45"></polygon><path d="M141,96.7c0,2.28-1.71,4.32-4.25,5.8-4,2.35-5.63.43-6-1.44l-.86-.5a8.89,8.89,0,0,0,2-.87,8.59,8.59,0,0,0,3.95-4.19C138.82,94.52,141,94.14,141,96.7Z" style="opacity:0.35000000000000003"></path><path d="M122.91,110.77a3.17,3.17,0,0,0-1.77-.43,8.06,8.06,0,0,1-.26-.91L116,106.62a6,6,0,0,0,2.72,4.15h0l4.85,2.81A2.29,2.29,0,0,0,122.91,110.77Z" style="opacity:0.35000000000000003"></path><path d="M139.2,85.17c-5.22,1.71-7.62,2.49-7.62-.34a4.56,4.56,0,0,1,.36-1.7c-3.56,1.1-5.22,1.24-5.22-1.11,0-1.73,1.17-3.86,4.39-5.73,3.43-2,5.35-1.53,5.83.68l9.4-8c0-.12-.08-.23-.13-.35a5.94,5.94,0,0,0,1.67-.64L144,65.66l-.37-.22-.06,0h0a6.56,6.56,0,0,0-3.69-.61A16.43,16.43,0,0,0,135,66.14V66l4.86-2.83L135,60.4h0l-3.29,1.92-4.46,2.59h0v5.73c-6.59,4.8-10.7,11.06-10.7,17.84,0,3.08.83,4.83,2.18,5.72h0l.06,0a3.24,3.24,0,0,0,.36.2l4.07,2.29A3,3,0,0,0,123,94.9a22.2,22.2,0,0,0,3.81-.83c4.94-1.49,9.33-3.84,9.33-.18a4.38,4.38,0,0,1-.3,1.61c3-1,5.16-1.36,5.16,1.2,0,2.28-1.71,4.32-4.25,5.8-4,2.35-5.63.43-6-1.44h0l-.86-.5-4-2.31L116,106.62l4.86,2.81a8.27,8.27,0,0,0,.74,2.06,15.71,15.71,0,0,0,6.27-1.55v2.32l7.68-1.05v-5.73c6.66-4.91,11.25-11.52,11.25-18.43a9.21,9.21,0,0,0-.55-3.46A27.36,27.36,0,0,0,139.2,85.17Z" style="fill:#68B5C8"></path><path d="M139.2,85.17c-5.22,1.71-7.62,2.49-7.62-.34a4.56,4.56,0,0,1,.36-1.7c-3.56,1.1-5.22,1.24-5.22-1.11,0-1.73,1.17-3.86,4.39-5.73,3.43-2,5.35-1.53,5.83.68l9.4-8c0-.12-.08-.23-.13-.35a5.94,5.94,0,0,0,1.67-.64L144,65.66l-.37-.22-.06,0h0a6.56,6.56,0,0,0-3.69-.61A16.43,16.43,0,0,0,135,66.14V66l4.86-2.83L135,60.4h0l-3.29,1.92-4.46,2.59h0v5.73c-6.59,4.8-10.7,11.06-10.7,17.84,0,3.08.83,4.83,2.18,5.72h0l.06,0a3.24,3.24,0,0,0,.36.2l4.07,2.29A3,3,0,0,0,123,94.9a22.2,22.2,0,0,0,3.81-.83c4.94-1.49,9.33-3.84,9.33-.18a4.38,4.38,0,0,1-.3,1.61c3-1,5.16-1.36,5.16,1.2,0,2.28-1.71,4.32-4.25,5.8-4,2.35-5.63.43-6-1.44h0l-.86-.5-4-2.31L116,106.62l4.86,2.81a8.27,8.27,0,0,0,.74,2.06,15.71,15.71,0,0,0,6.27-1.55v2.32l7.68-1.05v-5.73c6.66-4.91,11.25-11.52,11.25-18.43a9.21,9.21,0,0,0-.55-3.46A27.36,27.36,0,0,0,139.2,85.17Z" style="opacity:0.15"></path><g style="opacity:0.2"><path d="M127.27,70.64a30.3,30.3,0,0,0-8.78,10.6,18.16,18.16,0,0,0-1.67,6.64A11.53,11.53,0,0,0,117,91.3a4.7,4.7,0,0,0,1.72,2.9,4.72,4.72,0,0,1-2-2.82,12,12,0,0,1-.38-3.52A17.78,17.78,0,0,1,118,81a23.45,23.45,0,0,1,4-5.83A28.93,28.93,0,0,1,127.27,70.64Z"></path></g><path d="M146.27,83.59a27.36,27.36,0,0,0-7.07,1.58c-5.22,1.71-7.62,2.49-7.62-.34a4.56,4.56,0,0,1,.36-1.7,9.09,9.09,0,0,1,4-4c3.43-2,5.35-1.52,5.83.69l9.4-8a5.51,5.51,0,0,0-5.45-4.19,14.75,14.75,0,0,0-5.87,1.37V63.21L135,66l-2.89,1.68v5.73c-6.59,4.8-10.7,11.07-10.7,17.83A10.13,10.13,0,0,0,122,95c1.46,3.63,5.44,3.13,9.64,1.9,1.47-.44,2.9-1,4.17-1.38,3-1,5.16-1.36,5.16,1.2,0,2.28-1.71,4.32-4.25,5.8-4,2.35-5.63.43-6-1.44l-9.88,8.37a8.27,8.27,0,0,0,.74,2.06c1.29,2.41,3.59,3.08,6.27,2.72a18.06,18.06,0,0,0,4.86-1.46v5.74l7.68-4.44v-5.77c6.66-4.9,11.25-11.51,11.25-18.42C151.68,84.89,149.32,83.52,146.27,83.59Z" style="fill:#68B5C8"></path><g style="opacity:0.1"><path d="M146.27,83.59a27.36,27.36,0,0,0-7.07,1.58c-5.22,1.71-7.62,2.49-7.62-.34a4.56,4.56,0,0,1,.36-1.7,9.09,9.09,0,0,1,4-4c3.43-2,5.35-1.52,5.83.69l9.4-8a5.51,5.51,0,0,0-5.45-4.19,14.75,14.75,0,0,0-5.87,1.37V63.21L135,66l-2.89,1.68v5.73c-6.59,4.8-10.7,11.07-10.7,17.83A10.13,10.13,0,0,0,122,95c1.46,3.63,5.44,3.13,9.64,1.9,1.47-.44,2.9-1,4.17-1.38,3-1,5.16-1.36,5.16,1.2,0,2.28-1.71,4.32-4.25,5.8-4,2.35-5.63.43-6-1.44l-9.88,8.37a8.27,8.27,0,0,0,.74,2.06c1.29,2.41,3.59,3.08,6.27,2.72a18.06,18.06,0,0,0,4.86-1.46v5.74l7.68-4.44v-5.77c6.66-4.9,11.25-11.51,11.25-18.42C151.68,84.89,149.32,83.52,146.27,83.59Z" style="fill:#fff"></path></g><path d="M130.07,101.64,124,106.77l6.74,6.75c.66-.22,1.33-.47,2-.77v2.77l1.88,1.88,5.8-3.35v-2Z" style="fill:#fff;opacity:0.1"></path><path d="M146.27,83.59a27.36,27.36,0,0,0-7.07,1.58l-1.69.55,12.15,12.14a17.77,17.77,0,0,0,2-8,11.42,11.42,0,0,0-.22-2.34l-3.85-3.85A7.26,7.26,0,0,0,146.27,83.59Z" style="fill:#fff;opacity:0.1"></path><path d="M133.13,81.33A11.76,11.76,0,0,1,136,79.09c3.43-2,5.35-1.52,5.83.69l1-.88L132.13,68.19v5.26a35.32,35.32,0,0,0-3.74,3.15Z" style="fill:#fff;opacity:0.1"></path><path d="M142.46,68.05a23.42,23.42,0,0,0-2.58.89V65.47L138.45,64,135,66l-.59.34L145.05,77l3.44-2.93Z" style="fill:#fff;opacity:0.1"></path><path d="M126.2,97.77l-4.65-4.64A8.2,8.2,0,0,0,122,95,4.32,4.32,0,0,0,126.2,97.77Z" style="fill:#fff;opacity:0.1"></path><polygon points="132.13 73.45 127.27 70.64 127.27 64.91 132.13 67.72 132.13 73.45" style="fill:#68B5C8"></polygon><polygon points="132.13 73.45 127.27 70.64 127.27 64.91 132.13 67.72 132.13 73.45" style="opacity:0.35000000000000003"></polygon><path d="M140.43,108.28s.28-.21.75-.6a10.3,10.3,0,0,0,.85-.7c.32-.28.7-.58,1.08-.94s.8-.74,1.22-1.17l.64-.66c.22-.23.43-.47.65-.71s.44-.49.65-.75.44-.52.65-.79c.41-.55.84-1.1,1.21-1.69s.74-1.18,1.09-1.77a18.78,18.78,0,0,0,.88-1.81c.28-.59.47-1.19.69-1.75q.12-.43.24-.84l.12-.4c0-.13.06-.26.08-.39.11-.51.22-1,.27-1.4s.12-.79.13-1.09c0-.61.05-1,.05-1s0,.35,0,1a9.88,9.88,0,0,1-.09,1.1,12.4,12.4,0,0,1-.22,1.42c0,.13,0,.26-.08.39s-.07.27-.11.41-.15.56-.23.85a18.45,18.45,0,0,1-.66,1.77c-.25.62-.56,1.22-.88,1.83s-.68,1.22-1.09,1.79-.81,1.15-1.23,1.7c-.21.27-.44.53-.65.79l-.66.75-.66.71-.67.65c-.42.42-.86.79-1.25,1.14s-.77.65-1.1.92-.63.49-.87.67Z" style="fill:#fff"></path><polygon points="132.13 67.72 139.88 63.21 139.88 68.94 139.36 64.14 132.13 67.72" style="fill:#fafafa"></polygon><polygon points="132.75 112.75 133.16 117.73 140.43 114.05 132.75 118.49 132.75 112.75" style="fill:#fafafa"></polygon></g></g><polygon points="156.41 45.22 157.06 36.69 157.71 45.22 166.24 45.87 157.71 46.52 157.06 55.05 156.41 46.52 147.88 45.87 156.41 45.22" style="fill:#fff"></polygon><polygon points="163.56 52.49 163.87 48.35 164.19 52.49 168.32 52.8 164.19 53.12 163.87 57.25 163.56 53.12 159.42 52.8 163.56 52.49" style="fill:#fff"></polygon></g></g><g id="freepik--Character--inject-27"><g id="freepik--character--inject-27"><g id="freepik--Bottom--inject-27"><polygon points="370.92 286.84 365.1 289 363.9 284.94 368.81 285.04 370.92 286.84"></polygon><path d="M368.42,275.44s2.7,2.57,3.54,3.4-.5,6.75-1,8l-2.11-1.8a19.92,19.92,0,0,0,.83,5.12c.4,1.85,1.62,5,1.06,8.27-.82,4.9-4.38,10.08-9,14.32s-8.37,5.45-10.65,5.62-3.77-.63-4.51-2.08S368.42,275.44,368.42,275.44Z" style="fill:#263238"></path><path d="M347.06,277l-1.52-1.54c-.9.73,1.12,3.11,1.7,6.21a52.31,52.31,0,0,1,.94,14c-.91,8.35-2.76,14.69-3.14,18.43-.53,5,8.29,4.72,15.67-2.34,3.66-3.51,8.78-11.23,8.67-15.06s-2.08-8.25-2-11.16,1.89-7.34,1.06-10.09c-.46-1.51-3-3.75-5.3-5.58-2.08-1.68-4-5.5-4.92-4.29l.82,1.3c.32,1.24-.31,4.22-2.95,7.39C354.75,275.84,350.25,279.93,347.06,277Z" style="fill:#455a64"></path><path d="M353.65,276.47c-1.6,1.15-3.63,2-5.45,1.29l-.06,0a4.81,4.81,0,0,1,1.81,3.9c.06,2.74,1.5,21.25,1.5,21.25s-.26-16.06-.28-19.11c0-4.51.44-5.43,2.49-7.31Z" style="opacity:0.15"></path><path d="M345,314.09c.32-3.16,1.69-8.17,2.65-14.69.34,2,.05,4,.32,4.5.65,1.29,5.18,0,7.59-1.17s2.12-5.73,2.74-10.6,5.78-4.21,9.9-1.65a29.05,29.05,0,0,1,1.14,6.21c.11,3.83-5,11.55-8.67,15.06C353.33,318.81,344.51,319.1,345,314.09Z" style="fill:#37474f"></path><path d="M354.42,281a.64.64,0,0,0,.89,0,.59.59,0,0,0,0-.86.65.65,0,0,0-.9,0A.58.58,0,0,0,354.42,281Z" style="opacity:0.15"></path><path d="M354.38,285.44a.66.66,0,0,0,.9-.05.6.6,0,0,0,0-.86.64.64,0,0,0-.9.05A.6.6,0,0,0,354.38,285.44Z" style="opacity:0.15"></path><path d="M354.35,289.83a.65.65,0,0,0,.9,0,.61.61,0,0,0-.05-.87.66.66,0,0,0-.9.05A.59.59,0,0,0,354.35,289.83Z" style="opacity:0.15"></path><path d="M354.31,294.23a.66.66,0,0,0,.9-.05.59.59,0,0,0,0-.86.64.64,0,0,0-.89,0A.6.6,0,0,0,354.31,294.23Z" style="opacity:0.15"></path><path d="M354.28,298.62a.64.64,0,0,0,.9-.05.6.6,0,0,0-.05-.86.66.66,0,0,0-.9.05A.6.6,0,0,0,354.28,298.62Z" style="opacity:0.15"></path><path d="M355,280.76a.29.29,0,0,0,.07-.16.27.27,0,0,0-.25-.26c-.18,0-4.43-.16-7.26,2.56h0a.24.24,0,0,0,0,.35.27.27,0,0,0,.36,0c2.68-2.57,6.84-2.42,6.88-2.41A.28.28,0,0,0,355,280.76Z" style="fill:#263238"></path><path d="M355,285.15a.24.24,0,0,0,.07-.16.25.25,0,0,0-.24-.26c-.18,0-4.43-.17-7.26,2.56h0a.24.24,0,0,0,0,.34.25.25,0,0,0,.36,0c2.67-2.56,6.83-2.41,6.88-2.41A.23.23,0,0,0,355,285.15Z" style="fill:#263238"></path><path d="M355,289.55a.24.24,0,0,0,.07-.16.26.26,0,0,0-.25-.26c-.18,0-4.42-.17-7.26,2.56h0a.23.23,0,0,0,0,.34.25.25,0,0,0,.36,0c2.67-2.56,6.84-2.41,6.88-2.41A.24.24,0,0,0,355,289.55Z" style="fill:#263238"></path><path d="M354.92,293.94a.2.2,0,0,0,.07-.16.24.24,0,0,0-.24-.25c-.18,0-4.43-.17-7.26,2.55h0a.25.25,0,0,0,0,.35.27.27,0,0,0,.36,0c2.67-2.57,6.84-2.41,6.88-2.41A.27.27,0,0,0,354.92,293.94Z" style="fill:#263238"></path><path d="M354.89,298.34a.26.26,0,0,0,.07-.16.25.25,0,0,0-.24-.26c-.18,0-4.43-.17-7.27,2.55h0a.23.23,0,0,0,0,.34.25.25,0,0,0,.36,0c2.68-2.56,6.84-2.41,6.88-2.41A.27.27,0,0,0,354.89,298.34Z" style="fill:#263238"></path><path d="M282.27,157.14a314.2,314.2,0,0,0-.24,35.24c.81,18.88,1.89,27.89,10.66,39.33,7.83,10.22,50.77,44.71,54.22,48.2,0,0,14,.26,13.63-13.46,0,0-10.57-17.92-17.62-30.08s-15.83-17.6-15.83-17.6l7.28-55.62Z" style="fill:#263238"></path><path d="M329.46,162.69l4.88.46v.2l-7,53.63-.27,1.35h0l.09,0-.05.41a50.24,50.24,0,0,1,12.44,12.41c-1.57,4.88-4.78,13.46-4.78,13.46-.24,1.32,4,6.34,3,22.4-.07,1.16-.24,2.84-.44,4.65-10.59-8.87-25-21-34.8-30-.63-2.46-2.56-10.56-2.28-16.87s.94-37.22.94-37.22a26.8,26.8,0,0,1-7.78-5.93,16.89,16.89,0,0,1-3.93-6.86,102.29,102.29,0,0,1-4.71-12.3Z"></path><polygon points="319.66 338.39 313.73 336.53 315.44 332.66 319.19 335.71 319.66 338.39"></polygon><path d="M325.16,328s.43,3.64.54,4.78-4.8,4.93-6,5.58l-.47-2.68a20.5,20.5,0,0,0-2.7,4.48c-.89,1.68-2,4.83-4.57,7.05-3.84,3.31-10,5.16-16.35,5.66s-10.08-.86-12-2.11-2.53-2.78-2.16-4.35S325.16,328,325.16,328Z" style="fill:#263238"></path><path d="M307.49,316.31l-.18-2.11c-1.18,0-1.16,3.09-2.73,5.85a54.57,54.57,0,0,1-8.39,11.38c-6.16,5.93-11.74,9.72-14.49,12.39-3.68,3.56,3.37,8.68,13.73,7.69,5.15-.5,14.18-3.38,16.6-6.42s3.77-7.66,5.72-9.88,6.26-4.54,7.41-7.18c.64-1.45.09-4.74-.47-7.54-.52-2.56.47-6.69-1-6.31l-.22,1.51c-.56,1.15-3,3.08-7.12,3.93C314.26,320.05,308.08,320.49,307.49,316.31Z" style="fill:#455a64"></path><path d="M313,319.87c-2-.08-4.16-.62-5.08-2.31l0-.05a4.67,4.67,0,0,1-1.13,4.12C305,323.8,294,339,294,339s10.29-12.61,12.27-15c2.92-3.52,3.88-4,6.71-4.17Z" style="opacity:0.15"></path><path d="M281.7,343.82c2.32-2.26,6.66-5.32,11.67-9.78-1,1.73-2.56,3.11-2.69,3.68-.34,1.4,4,3.14,6.67,3.69s5.4-3.15,9.06-6.55,7.25.24,8.78,4.72a29.78,29.78,0,0,1-3.16,5.51c-2.42,3-11.45,5.92-16.6,6.42C285.07,352.5,278,347.38,281.7,343.82Z" style="fill:#37474f"></path><path d="M310.6,323.88a.64.64,0,0,0,.73.51.61.61,0,0,0,.52-.7.64.64,0,0,0-.73-.51A.61.61,0,0,0,310.6,323.88Z" style="opacity:0.15"></path><path d="M307.7,327.27a.64.64,0,0,0,.73.51.62.62,0,0,0,.53-.7.65.65,0,0,0-.73-.51A.61.61,0,0,0,307.7,327.27Z" style="opacity:0.15"></path><path d="M304.8,330.65a.64.64,0,0,0,.73.51.61.61,0,0,0,.53-.7.63.63,0,0,0-.73-.5A.61.61,0,0,0,304.8,330.65Z" style="opacity:0.15"></path><path d="M301.91,334a.63.63,0,0,0,.72.51.61.61,0,0,0,.53-.7.64.64,0,0,0-.73-.51A.61.61,0,0,0,301.91,334Z" style="opacity:0.15"></path><path d="M299,337.42a.62.62,0,0,0,.73.51.6.6,0,0,0,.52-.69.63.63,0,0,0-.73-.51A.6.6,0,0,0,299,337.42Z" style="opacity:0.15"></path><path d="M311.26,324a.25.25,0,0,0,.16-.08.25.25,0,0,0,0-.35,10.84,10.84,0,0,0-7.33-2.42h0a.24.24,0,0,0-.22.27.26.26,0,0,0,.28.22,10.4,10.4,0,0,1,6.93,2.3A.24.24,0,0,0,311.26,324Z" style="fill:#263238"></path><path d="M308.36,327.41a.3.3,0,0,0,.16-.08.25.25,0,0,0,0-.35,10.77,10.77,0,0,0-7.33-2.43h0a.25.25,0,1,0,.06.49c3.75-.37,6.9,2.28,6.93,2.3A.29.29,0,0,0,308.36,327.41Z" style="fill:#263238"></path><path d="M305.46,330.8a.21.21,0,0,0,.16-.08.22.22,0,0,0,0-.34,10.73,10.73,0,0,0-7.32-2.43h0a.25.25,0,0,0-.22.27.26.26,0,0,0,.28.22c3.76-.37,6.9,2.28,6.93,2.3A.25.25,0,0,0,305.46,330.8Z" style="fill:#263238"></path><path d="M302.57,334.19a.35.35,0,0,0,.16-.08.24.24,0,0,0,0-.35,10.72,10.72,0,0,0-7.32-2.42h0a.24.24,0,1,0,.06.48,10.38,10.38,0,0,1,6.93,2.31A.27.27,0,0,0,302.57,334.19Z" style="fill:#263238"></path><path d="M299.67,337.57a.23.23,0,0,0,.16-.08.24.24,0,0,0,0-.34,10.77,10.77,0,0,0-7.33-2.43h0a.26.26,0,0,0-.23.27.27.27,0,0,0,.29.22c3.75-.37,6.89,2.28,6.93,2.3A.24.24,0,0,0,299.67,337.57Z" style="fill:#263238"></path><path d="M343.68,154.09s1.23,10.33,1.63,16.58a102.89,102.89,0,0,1-2.81,32.63c-2,8.91-9.26,39-9.85,42.15,1.66,6.68,2.86,12.17,1.18,27.05-2.58,22.88-9.18,47.57-9.18,47.57-1.82,2.85-16.09,2.43-20.42-1.21,0,0-1.37-66.75-2-80.71-.54-12.13,2.37-52.24,2.37-52.24S285.18,179.6,282,158.4Z" style="fill:#263238"></path></g><g id="freepik--Top--inject-27"><g id="freepik--Arm--inject-27"><path d="M293.16,87.61c-6.8,2.27-9.68,5.45-16.13,14.15-6.29,8.49-15.44,20.9-15.44,20.9l-33.39-3.72,3.37,16.85s24.17,6.06,32.05,7.08c5.9.77,9-2.42,12.88-7,6.91-8.26,15.73-20.45,15.73-20.45Z" style="fill:#f0f0f0"></path></g><g id="freepik--top--inject-27"><path d="M327,82.58s-19.94-.8-32,3.9c-2.68,1-9.66,7.21-11.19,24.73-1.88,21.43-2,49.25-2,49.25.53,1.83,6.66,12,25.06,14.85,19,2.93,29.85,1.59,39.26-5.75,0-16.65.05-17.8.1-30.7,0-8.33,2.52-24.37,3.93-31.34,1-4.9,0-13-3.06-15-3.22-2.08-15.18-6.36-15.18-6.36A14.76,14.76,0,0,1,327,82.58Z" style="fill:#fafafa"></path><path d="M323.6,83.43c1.41,0,2.46,0,3,0A16,16,0,0,0,331.53,87l0,0,.05,0c.12,0,11.9,4.26,15,6.26,2.58,1.67,3.64,9.25,2.67,14.06-1.36,6.72-3.92,22.87-4,31.52,0,4.3,0,7.3,0,10,0,5.3-.06,9.49-.05,20.26-6.2,4.71-12.9,6.73-22.32,6.73a106.19,106.19,0,0,1-15.9-1.43c-18.64-2.89-23.82-13.07-24.3-14.12,0-2.37.24-28.73,2-49s10.54-23.93,10.63-24c9-3.52,22.74-3.89,28.24-3.89m0-.91c-6.22,0-19.6.45-28.57,4-2.68,1-9.66,7.21-11.19,24.73-1.88,21.43-2,49.25-2,49.25.53,1.83,6.66,12,25.06,14.85a106.79,106.79,0,0,0,16,1.44c9.78,0,16.84-2.22,23.22-7.19,0-16.65.05-17.8.1-30.7,0-8.33,2.52-24.37,3.93-31.34,1-4.9,0-13-3.06-15-3.22-2.08-15.18-6.36-15.18-6.36A14.76,14.76,0,0,1,327,82.58s-1.28-.06-3.39-.06Z" style="fill:#e0e0e0"></path><g id="freepik--Head--inject-27"><path d="M332.06,42.1c5.23,6.67,3,14,.52,21.37-2.86,8.38-3.16,11.13-8.18,13,2.68-26.68-8.3,2.56-28.52-19.5-3.66-4-3.6-14.37,1.41-19.37C304.38,30.5,321.8,29.5,332.06,42.1Z" style="fill:#37474f"></path><path d="M332.13,72.27c-4,1.4-5.82-1.45-5.82-1.45l-.64,10.45s5.31,6.7-.32,8.32c-13.87,4-14.87,6.83-19.31,11.54-2.06-4-.77-10.47-.87-12.84l.51-7.78a17.41,17.41,0,0,1-4.74-.49c-4-1.14-6.69-4.11-7.54-9.6-1-6.63,0-17.07,2.82-26,4.31-3,18.47-2.6,27,3.32-.75,7.37,1.18,8.68,1,11.86-.21,3.58,0,4.41,1.05,5s2.14-1.07,2.64-2.1c.85-1.72,1.56-2.82,3.33-3.16s3.69.07,5.15,2.51C338.6,65.57,335,71.26,332.13,72.27Z" style="fill:#ffa8a7"></path><path d="M311.55,57.52A1.63,1.63,0,1,0,313.33,56,1.65,1.65,0,0,0,311.55,57.52Z" style="fill:#263238"></path><path d="M310.85,67.79,304.92,69a3,3,0,0,0,3.51,2.46A3.17,3.17,0,0,0,310.85,67.79Z" style="fill:#b16668"></path><path d="M310.18,69.08a2.72,2.72,0,0,0-2.7,2.4,3,3,0,0,0,.95,0,3.1,3.1,0,0,0,2.34-2.25A2.81,2.81,0,0,0,310.18,69.08Z" style="fill:#f28f8f"></path><path d="M297.07,52.21,301.5,50a2.4,2.4,0,0,0-3.26-1.08A2.54,2.54,0,0,0,297.07,52.21Z" style="fill:#263238"></path><path d="M313,51.69l3.93,3.05a2.4,2.4,0,0,0-.43-3.42A2.53,2.53,0,0,0,313,51.69Z" style="fill:#263238"></path><path d="M297.86,56a1.64,1.64,0,1,0,1.8-1.54A1.69,1.69,0,0,0,297.86,56Z" style="fill:#263238"></path><path d="M308.84,54.58,306.1,65.5l-5.21-2.43C302.67,59.37,305.55,57.05,308.84,54.58Z" style="fill:#f28f8f"></path><path d="M305.68,80.51c4.42,0,10.62-1,13.31-3.14a15,15,0,0,0,5.14-7.17,14.1,14.1,0,0,1-4.9,9.71c-3.83,3.42-13.73,3.7-13.73,3.7Z" style="fill:#f28f8f"></path></g></g><g id="freepik--Arma--inject-27"><path d="M340,89.25s-2.46,10.91-1.25,19.23,6.11,12.52,9.67,16.69,9.37,9.63,16.28,10L366,113.62a127.91,127.91,0,0,0-9-12.43C352.18,95.28,351.65,93.19,340,89.25Z" style="fill:#f0f0f0"></path><path d="M340,89.25s-2.46,10.91-1.25,19.23,6.11,12.52,9.67,16.69,9.37,9.63,16.28,10L366,113.62a127.91,127.91,0,0,0-9-12.43C352.18,95.28,351.65,93.19,340,89.25Z" style="opacity:0.1"></path></g><path d="M306,101.13c2.13-2.64,5.37-8.13,7.25-9.42S324.41,86,325.66,81.47l.18-2.65c1.28-.5,1.59,2.84,6.09,7.35a16.87,16.87,0,0,1-3.66,10.17,12.64,12.64,0,0,1-11,5.45s-3.14-6.08-4-6.39S308.76,99.18,306,101.13Z" style="fill:#f0f0f0"></path><path d="M306,101.13c-1.17-2.35-1-11.2-1-11.2l.46-6.59s-2-.12-3.59,2.52c-3.57,6.1-3.63,10.25-3.13,11.42,1.41-2.58,4.19-3.81,4.67-3.1S304.55,99,306,101.13Z" style="fill:#f0f0f0"></path><g id="freepik--Hand--inject-27"><path d="M351,84.87a24,24,0,0,1-3.2-9c-.41-3.68-2.78-7.34-3.56-8.82s-2.57-3.74-3.89-5.85-1.71-2.69-3.93-3.38c-3-.95-5.42-1.76-6.69-1.56s-1.34,1-.42,2.24,3.1,1.78,3.77,2.08,2.09,1.17,2.09,1.17l2.31,4.63a43.06,43.06,0,0,0-6,.64c-1,.39-2.18,2.76-1.95,4.18,0,0-2,1-1.49,2.84,0,0-1.28,1.28-.69,2.55a19.53,19.53,0,0,0,2.47,3.62c.53.59,2.87,1,2.87,1A21.54,21.54,0,0,0,335.81,86c1.51,1.47,2.62,1.54,4.11,4.39Z" style="fill:#ffa8a7"></path><path d="M335.27,66.53c-1.09-.65-1.24-1.47-2.39-1.2s-.9,1.57-.9,1.57Z" style="fill:#f28f8f"></path><path d="M329.56,71.33a11,11,0,0,1,2.59-1.22c.85-.28,2.6-.64,2.6-.64a11.89,11.89,0,0,0-3.5.34,10,10,0,0,0-1.71.59,3.13,3.13,0,0,0,0,.81Z" style="fill:#f28f8f"></path><path d="M329.18,73a7.89,7.89,0,0,0-1.19.42,2.89,2.89,0,0,0,.08.81c.76-.82,3.33-1.5,3.33-1.5A10.24,10.24,0,0,0,329.18,73Z" style="fill:#f28f8f"></path><path d="M333.05,82a23.59,23.59,0,0,0-1.87-4.17,1.76,1.76,0,0,0-2.35-.54c-.38.42,1.22.58,1.65.84A15.06,15.06,0,0,1,333.05,82Z" style="fill:#f28f8f"></path><path d="M338.88,66.45s-.72-1.39-2.06-3.61-1.27-1.92-2.78-2.44S329.65,59,329,57.93a4.74,4.74,0,0,0,.38.58c.88,1.18,3.1,1.78,3.77,2.08s2.09,1.17,2.09,1.17l2.38,4.76Z" style="fill:#f28f8f"></path><path d="M351,84.87c4.37,7,16.42,24.06,18.86,30.53,1.7,4.47,1,14.25-1.81,17.46s-9.15.85-13.84-4.53c-4.05-4.65-6.58-14.87-9-22.23s-5.35-15.68-5.35-15.68Z" style="fill:#ffa8a7"></path><path d="M341.54,96.28s5.44.65,9-1.37a9.84,9.84,0,0,0,4.51-4.77s9.38,14.25,12,18.6,4.81,7.34,4.33,13.83-1.14,12.23-5.8,12.62-9.87-3.74-12.64-7S344.8,109.64,341.54,96.28Z" style="fill:#f0f0f0"></path><path d="M351,84.87a32.61,32.61,0,0,1-2.5-5.48c-.69-1.9-.67-4-1.29-5.88A39.76,39.76,0,0,0,341.46,63c-1.22-1.52-1.91-3.67-3.73-4.57-1.15-.41-10.14-3.92-8.67-.66,1.25,2.32,4.42,2.32,6.29,3.91l2.3,4.64c.11.24.15.18-.12.2a54.28,54.28,0,0,0-5.42.48c-.93,0-1.47.85-1.88,1.63a4.48,4.48,0,0,0-.56,2.64,2.49,2.49,0,0,0-1.5,2.8,2.46,2.46,0,0,0-.8,2.27,11.58,11.58,0,0,0,1.28,2.19,7.15,7.15,0,0,0,1.64,1.89,10.33,10.33,0,0,0,2.46.76A18.81,18.81,0,0,0,336,86.12c1.5,1.25,3.14,2.43,3.95,4.3-.84-1.87-2.48-3-4-4.23a19.09,19.09,0,0,1-3.29-4.89,8.63,8.63,0,0,1-2.41-.71,7.27,7.27,0,0,1-1.72-1.94c-1.11-1.54-2.13-3-.51-4.68l0,.1a2.7,2.7,0,0,1,1.54-3l-.06.12a5.25,5.25,0,0,1,1.37-3.85,2,2,0,0,1,1.26-.62,53,53,0,0,1,5.46-.51l-.12.2-2.32-4.62c-1.69-1.26-5.17-1.67-6.28-3.91-1.6-3.94,7.61-.21,9,.3A5.3,5.3,0,0,1,340,60.37c2.71,4.22,5.89,8.23,7.41,13.09.6,1.93.55,4,1.21,5.9A32.6,32.6,0,0,0,351,84.87Z" style="fill:#b16668"></path></g></g><g id="freepik--puzzle-piece--inject-27"><path d="M294.25,151c-.13-3.71-2.72-8.05-5.78-9.71a6,6,0,0,0-3.74-.72,7.63,7.63,0,0,1-7.08-3.32c-2.48-3.4-2.55-8.27-2.65-15.64,0-2-.05-4.22-.11-6.63-11.12-6.65-22.73-13.32-25.36-12.2l-.12.06c-1.42.78-.41,3.58.92,5.82a10.1,10.1,0,0,1,1.73,4.74c.13,3.2-3.46,3.81-8,1.39s-8.25-7-8.37-10.18a3.37,3.37,0,0,1,1.46-3c1.26-.87,2.12-2.75.44-5.2-2.75-4-11.45-8.19-22.53-13.49V83l.07,1.95c0,.63,0,1.24,0,1.85.33,9.34.4,16-2.25,16.86-2,.69-5.08-1.89-7.1-4.32A13.55,13.55,0,0,0,202,96a3.76,3.76,0,0,0-3.6-.3c-1.12.61-1.79,2-1.72,4,.13,3.72,2.71,8.07,5.78,9.71a6.06,6.06,0,0,0,3.75.73,7.6,7.6,0,0,1,7.07,3.31c3,4,3.15,10.19,3.49,20.35l.08,2.42c10.11,6,19.69,11.32,22.45,10.12l.11-.05c1.42-.76.41-3.58-.92-5.8a10.52,10.52,0,0,1-1.73-4.76c-.1-3.19,3.47-3.8,8-1.37s8.27,7,8.37,10.17a3.4,3.4,0,0,1-1.46,3c-1.25.87-2.12,2.75-.42,5.19,2.51,3.63,11.67,8.45,22.28,14,1,.54,2.07,1.08,3.14,1.63-.1-2.19-.2-4.3-.32-6.36-.44-8.28-.76-14.25,1.63-15.07,2-.69,5.08,1.9,7.1,4.32a13.41,13.41,0,0,0,3.85,3.36,3.7,3.7,0,0,0,3.6.3C293.65,154.42,294.32,153,294.25,151Z" style="fill:#68B5C8"></path><path d="M294.25,151c-.13-3.71-2.72-8.05-5.78-9.71a6,6,0,0,0-3.74-.72,7.63,7.63,0,0,1-7.08-3.32c-2.48-3.4-2.55-8.27-2.65-15.64,0-2-.05-4.22-.11-6.63-11.12-6.65-22.73-13.32-25.36-12.2l-.12.06c-1.42.78-.41,3.58.92,5.82a10.1,10.1,0,0,1,1.73,4.74c.13,3.2-3.46,3.81-8,1.39s-8.25-7-8.37-10.18a3.37,3.37,0,0,1,1.46-3c1.26-.87,2.12-2.75.44-5.2-2.75-4-11.45-8.19-22.53-13.49V83l.07,1.95c0,.63,0,1.24,0,1.85.33,9.34.4,16-2.25,16.86-2,.69-5.08-1.89-7.1-4.32A13.55,13.55,0,0,0,202,96a3.76,3.76,0,0,0-3.6-.3c-1.12.61-1.79,2-1.72,4,.13,3.72,2.71,8.07,5.78,9.71a6.06,6.06,0,0,0,3.75.73,7.6,7.6,0,0,1,7.07,3.31c3,4,3.15,10.19,3.49,20.35l.08,2.42c10.11,6,19.69,11.32,22.45,10.12l.11-.05c1.42-.76.41-3.58-.92-5.8a10.52,10.52,0,0,1-1.73-4.76c-.1-3.19,3.47-3.8,8-1.37s8.27,7,8.37,10.17a3.4,3.4,0,0,1-1.46,3c-1.25.87-2.12,2.75-.42,5.19,2.51,3.63,11.67,8.45,22.28,14,1,.54,2.07,1.08,3.14,1.63-.1-2.19-.2-4.3-.32-6.36-.44-8.28-.76-14.25,1.63-15.07,2-.69,5.08,1.9,7.1,4.32a13.41,13.41,0,0,0,3.85,3.36,3.7,3.7,0,0,0,3.6.3C293.65,154.42,294.32,153,294.25,151Z" style="fill:#fff;opacity:0.30000000000000004"></path><g id="freepik--Tablet--inject-27"><path d="M208.9,117.44c-1.51-2.11-1.37-2.39-.56-3.46a6.65,6.65,0,0,1,5.4-2.77c1.86.06,3.73,0,4.68.51s.15,2.51-2.27,3c-3.8.85-3.78,1.88-3.78,1.88a48.69,48.69,0,0,1,4.91-.86,34.56,34.56,0,0,1,5.58.85c1.61.25,1.93,2.32-.79,3l2.94.47c2.05.33,2.75,1.43,1.14,2.7a3.09,3.09,0,0,1-1.87.7s2.2,0,2.24.73c.13,2.09-1.22,2.64-5.65,3.92a7,7,0,0,0-4.15,2.72l.1,2.78s-1.91-1.42-3.42-2.46c-1.11-.77-2.06-1.63-1.56-3.36,0,0-2.41,0-2.56-1.45a7.8,7.8,0,0,1,.59-3.2,2.63,2.63,0,0,1-1.33-2.48,4.24,4.24,0,0,1,.87-2.62Z" style="fill:#ffa8a7"></path><path d="M222.07,119.67a14.55,14.55,0,0,0-2.67-.29,8.83,8.83,0,0,0-2.59.82,31.69,31.69,0,0,0-4.66,2.5,31.58,31.58,0,0,0,5-1.78,14.57,14.57,0,0,1,2.35-.94C220.27,119.85,221.2,119.84,222.07,119.67Z" style="fill:#f28f8f"></path><path d="M224.28,123.54a6,6,0,0,0-2.88-.09,16.11,16.11,0,0,0-2.76.87,28,28,0,0,0-5,2.69,52.93,52.93,0,0,0,5.33-2A15.18,15.18,0,0,1,224.28,123.54Z" style="fill:#f28f8f"></path></g></g></g></g><g id="freepik--speech-bubble--inject-27"><g id="freepik--speech-bubble--inject-27"><g id="freepik--speech-bubble--inject-27"><path d="M388.15,27.8a32.25,32.25,0,1,0,42,17.7A32.29,32.29,0,0,0,388.15,27.8Zm1.09,2.69a29.35,29.35,0,1,1-16.12,38.25A29.37,29.37,0,0,1,389.24,30.49Z" style="fill:#455a64"></path><path d="M389.24,30.49A29.35,29.35,0,1,0,427.49,46.6,29.38,29.38,0,0,0,389.24,30.49Z" style="fill:#fff"></path><path d="M362.87,74.8l11.43-.19-4.43-10.89-8.32,7.85A1.87,1.87,0,0,0,362.87,74.8Z" style="fill:#455a64"></path></g><g id="freepik--Bulb--inject-27"><path d="M404.72,70.1h-8.83a.65.65,0,0,1-.66-.66.66.66,0,0,1,.66-.67h8.83a.66.66,0,0,1,.66.67A.65.65,0,0,1,404.72,70.1Z" style="fill:#455a64"></path><path d="M400.31,77a5.08,5.08,0,0,1-5.08-5.08.65.65,0,0,1,.66-.66h8.83a.65.65,0,0,1,.66.66A5.08,5.08,0,0,1,400.31,77Z" style="fill:#455a64"></path><path d="M409.74,42.13a13.59,13.59,0,0,0-10.1-3.76,13.85,13.85,0,0,0-13,13.43,13.68,13.68,0,0,0,6.72,12,3.62,3.62,0,0,1,1.82,3.12.58.58,0,0,0,.59.6h9.07a.6.6,0,0,0,.6-.6,3.65,3.65,0,0,1,1.8-3.11A13.73,13.73,0,0,0,414,52,13.56,13.56,0,0,0,409.74,42.13Z" style="fill:#68B5C8"></path><g style="opacity:0.35000000000000003"><path d="M409.74,42.13a13.59,13.59,0,0,0-10.1-3.76,13.85,13.85,0,0,0-13,13.43,13.68,13.68,0,0,0,6.72,12,3.62,3.62,0,0,1,1.82,3.12.58.58,0,0,0,.59.6h9.07a.6.6,0,0,0,.6-.6,3.65,3.65,0,0,1,1.8-3.11A13.73,13.73,0,0,0,414,52,13.56,13.56,0,0,0,409.74,42.13Z" style="fill:#fff"></path></g><path d="M407.87,54.83a1.33,1.33,0,0,0-1.32-.93,3.3,3.3,0,0,0-2.43,1.58l-.1.14-.17,0a7,7,0,0,1-2-1.08,6.3,6.3,0,0,1-.93-.85l-.14-.13.11-.17a4,4,0,0,0,.87-3.4,1.52,1.52,0,0,0-2.87,0,4.08,4.08,0,0,0,.87,3.4l.11.17-.14.13a6.3,6.3,0,0,1-.93.85,7,7,0,0,1-2,1.08l-.17,0-.1-.14a3.3,3.3,0,0,0-2.43-1.58,1.33,1.33,0,0,0-1.32.93,1.07,1.07,0,0,0,.48,1.26,3.2,3.2,0,0,0,1.82.46,6.6,6.6,0,0,0,1.06-.09l.17,0,.08.16a10.46,10.46,0,0,1,.76,1.77,24.09,24.09,0,0,1,.77,7.82c0,.45,0,.89,0,1.32h.71V66.15a24.45,24.45,0,0,0-.8-8,11.69,11.69,0,0,0-.68-1.66l-.12-.24.26-.1a7.77,7.77,0,0,0,2-1.09,9.38,9.38,0,0,0,.93-.82l.17-.18.18.18a9.23,9.23,0,0,0,.93.82,7.6,7.6,0,0,0,2,1.09l.26.1-.12.24a11.69,11.69,0,0,0-.68,1.66,24.48,24.48,0,0,0-.8,8c0,.45,0,.89,0,1.33h.7c0-.43,0-.87,0-1.36a23.9,23.9,0,0,1,.77-7.78,10.46,10.46,0,0,1,.76-1.77l.08-.16.17,0a6.5,6.5,0,0,0,1.06.09,3.2,3.2,0,0,0,1.82-.46A1.07,1.07,0,0,0,407.87,54.83Zm-12.49,1h-.31a2.7,2.7,0,0,1-1.45-.33.45.45,0,0,1-.22-.47.64.64,0,0,1,.66-.45,2.26,2.26,0,0,1,1.48.84l.35.37Zm4.92-2.9-.2-.34a3.18,3.18,0,0,1-.57-2.44.74.74,0,0,1,.77-.53.75.75,0,0,1,.78.53,3.18,3.18,0,0,1-.57,2.44ZM407,55.52a2.74,2.74,0,0,1-1.46.33h-.3l-.51,0,.35-.37a2.26,2.26,0,0,1,1.48-.84.65.65,0,0,1,.66.45C407.29,55.31,407.06,55.46,407,55.52Z" style="fill:#fafafa"></path></g></g></g></svg>
